# xmcd
#
# Track frame offsets: 
#        150
#        20620
#        31291
#        44392
#        80995
#        103973
#        123405
#        137873
#        155450
#        174526
#        199885
#
# Disc length: 2956 seconds
#
# Revision: 0
# Processed by: cddbd v1.5.2PL0 Copyright (c) Steve Scherf et al.
# Submitted via: ExactAudioCopy v0.95b4
#
DISCID=9d0b8a0b
DTITLE=Texray - Blues From The Basement
DYEAR=2003
DGENRE=Blues
TTITLE0=Born under a bad sign
TTITLE1=Looking back
TTITLE2=I know a place
TTITLE3=Little wing, extended version
TTITLE4=Life in the jungle
TTITLE5=Pride and joy
TTITLE6=Mary had a little lamb
TTITLE7=Have a little faith
TTITLE8=Alone in the dark
TTITLE9=Texas flood
TTITLE10=Have I told you lately
EXTD=
EXTT0=
EXTT1=
EXTT2=
EXTT3=
EXTT4=
EXTT5=
EXTT6=
EXTT7=
EXTT8=
EXTT9=
EXTT10=
PLAYORDER=
